<svg width="1024" height="1024" viewBox="0 0 1024 1024" fill="none"
  xmlns="http://www.w3.org/2000/svg">
  <rect width="1024" height="1024" fill="white"/>
  <rect width="1024" height="1024" fill="#F18D8D"/>
  <rect width="1024" height="1024" fill="#81B3FF"/>
  <path d="M824.699 363.904C810.254 349.191 775.078 326.052 762.906 309.467C750.735 293.016 739.099 252.891 729.335 234.835C702.318 184.545 630.093 179.195 584.216 213.034L567.364 225.606C521.488 259.445 503.699 331.804 545.563 370.591C560.944 384.901 596.521 408.307 608.96 425.161C621.265 441.88 631.965 480.935 640.926 499.66C665.67 551.02 740.169 555.3 786.045 521.461L802.898 508.889C848.774 475.05 864.824 404.43 824.699 363.904ZM794.338 437.065C788.586 473.044 754.748 497.52 718.635 491.769C682.656 486.018 661.925 452.58 663.931 416.2C666.205 373.935 630.093 374.47 630.093 374.47C594.114 368.719 569.504 334.746 575.255 298.768C581.14 262.789 614.979 238.312 650.958 244.064C686.936 249.815 711.546 283.654 705.661 319.766C705.661 319.766 696.165 360.159 739.634 361.363C776.014 362.433 800.089 401.086 794.338 437.065Z" fill="#E8E8E8"/>
  <path d="M359.663 721.741L330.262 694.333L635.857 468.801L572.86 390.513L189.805 683.105L240.004 755.017L277.309 726.307L305.313 759.596L269.08 789.88L312.325 842.294L342.13 818.417C342.13 818.417 348.224 771.178 395.895 776.486L427.453 749.696L388.298 700.195L359.663 721.741Z" fill="#E8E8E8"/>
  <path d="M586.503 493.252L327.605 688.788L356.449 723.61L384.544 702.396L422.958 751.13L391.997 777.504C345.226 772.279 339.249 818.786 339.249 818.786L310.009 842.294L267.58 790.692L303.129 760.878L275.655 728.105L239.054 756.369L189.804 695.649L539.948 431.108" stroke="black" stroke-width="12" stroke-miterlimit="10" stroke-linecap="round" stroke-linejoin="round"/>
  <path d="M824.699 363.904C810.254 349.191 775.078 326.052 762.906 309.467C750.735 293.016 739.099 252.891 729.335 234.835C702.318 184.545 630.093 179.195 584.216 213.034L567.364 225.606C521.488 259.445 503.699 331.804 545.563 370.591C560.944 384.901 596.521 408.307 608.96 425.161C621.265 441.88 631.965 480.935 640.926 499.66C665.67 551.02 740.169 555.3 786.045 521.461L802.898 508.889C848.774 475.05 864.824 404.43 824.699 363.904ZM794.338 437.065C788.586 473.044 754.748 497.52 718.635 491.769C682.656 486.018 661.925 452.58 663.931 416.2C666.205 373.935 630.093 374.47 630.093 374.47C594.114 368.719 569.504 334.746 575.255 298.768C581.14 262.789 614.979 238.312 650.958 244.064C686.936 249.815 711.546 283.654 705.661 319.766C705.661 319.766 696.165 360.159 739.634 361.363C776.014 362.433 800.089 401.086 794.338 437.065Z" stroke="black" stroke-width="12" stroke-miterlimit="10"/>
</svg>
