<?xml version="1.0" encoding="UTF-8"?>
<!-- Generated by Pixelmator Pro 3.6.8 -->
<svg width="512" height="512" viewBox="0 0 512 512" xmlns="http://www.w3.org/2000/svg">
    <g id="layer1">
        <path id="path2514" fill="#E0911C" stroke="none" d="M 260.800232 64.385193 C 247.172557 64.385193 234.444814 66.892141 222.617004 71.906036 C 210.789205 76.920034 200.407822 83.894491 191.472855 92.829407 C 182.537623 101.764648 175.563029 112.113922 170.549072 123.877228 C 165.535177 135.640818 163.028229 148.272176 163.028229 161.771301 C 163.028229 182.212606 168.652873 200.725677 179.902161 217.310516 C 191.151235 233.89505 206.289464 245.851308 225.316849 253.179291 L 225.316849 402.826294 C 225.316849 404.883341 225.670471 406.683248 226.377716 408.226013 C 227.084656 409.768799 228.145213 411.311564 229.559387 412.854309 L 255.01474 438.695557 C 256.300425 439.852417 258.132446 440.559438 260.510803 440.81662 C 262.889425 441.073334 264.914307 440.366313 266.585449 438.695557 L 314.989471 390.291443 C 316.660858 388.491577 317.496552 386.498881 317.496552 384.313354 C 317.496552 382.127747 316.660858 380.19928 314.989471 378.527954 L 285.484344 349.408386 L 325.981567 308.911194 C 327.652974 307.36851 328.456421 305.504364 328.391907 303.318756 C 328.32723 301.133148 327.395162 299.140381 325.595703 297.340454 L 285.869812 257.036438 C 309.139669 247.651225 327.074239 234.634196 339.673523 217.985352 C 352.272502 201.336426 358.571991 182.598409 358.571991 161.771301 C 358.571991 148.272176 356.032898 135.640818 350.954712 123.877228 C 345.876506 112.113922 338.869924 101.764648 329.934967 92.829407 C 320.999746 83.894491 310.618225 76.920034 298.790405 71.906036 C 286.962606 66.892141 274.299235 64.385193 260.800293 64.385193 Z M 260.800232 157.335724 C 253.343689 157.335724 246.947698 154.700256 241.612259 149.429321 C 236.27682 144.158183 233.6091 137.730052 233.6091 130.144928 C 233.6091 122.559703 236.2447 116.13147 241.5159 110.860229 C 246.786814 105.589294 253.214925 102.953827 260.800232 102.953827 C 268.256795 102.953827 274.652791 105.621541 279.98822 110.95697 C 285.323405 116.292196 287.990997 122.688182 287.990997 130.144928 C 287.990997 137.730052 285.323405 144.158183 279.98822 149.429321 C 274.652791 154.700256 268.256795 157.335724 260.800232 157.335724 Z"/>
    </g>
</svg>
