<?xml version="1.0" encoding="UTF-8" standalone="no"?>
<!-- Created with Inkscape (http://www.inkscape.org/) -->

<svg
   width="512"
   height="512"
   viewBox="0 0 135.46666 135.46667"
   version="1.1"
   id="svg5"
   inkscape:version="1.2 (dc2aeda, 2022-05-15)"
   sodipodi:docname="AppIcon.svg"
   xmlns:inkscape="http://www.inkscape.org/namespaces/inkscape"
   xmlns:sodipodi="http://sodipodi.sourceforge.net/DTD/sodipodi-0.dtd"
   xmlns:xlink="http://www.w3.org/1999/xlink"
   xmlns="http://www.w3.org/2000/svg"
   xmlns:svg="http://www.w3.org/2000/svg">
  <sodipodi:namedview
     id="namedview7"
     pagecolor="#ffffff"
     bordercolor="#000000"
     borderopacity="0.25"
     inkscape:showpageshadow="2"
     inkscape:pageopacity="0.0"
     inkscape:pagecheckerboard="0"
     inkscape:deskcolor="#d1d1d1"
     inkscape:document-units="px"
     showgrid="false"
     inkscape:zoom="0.96387312"
     inkscape:cx="177.92798"
     inkscape:cy="203.86501"
     inkscape:window-width="1680"
     inkscape:window-height="997"
     inkscape:window-x="0"
     inkscape:window-y="25"
     inkscape:window-maximized="0"
     inkscape:current-layer="layer1" />
  <defs
     id="defs2">
    <linearGradient
       inkscape:collect="always"
       id="linearGradient828">
      <stop
         style="stop-color:#d47d00;stop-opacity:1;"
         offset="0"
         id="stop824" />
      <stop
         style="stop-color:#ffc76a;stop-opacity:1;"
         offset="1"
         id="stop826" />
    </linearGradient>
    <linearGradient
       inkscape:collect="always"
       xlink:href="#linearGradient828"
       id="linearGradient830"
       x1="0.54900032"
       y1="68.00783"
       x2="136.01566"
       y2="68.00783"
       gradientUnits="userSpaceOnUse"
       gradientTransform="translate(-0.54900032,-135.74116)" />
    <filter
       inkscape:collect="always"
       style="color-interpolation-filters:sRGB"
       id="filter8175"
       x="-0.13120387"
       y="-0.068146817"
       width="1.2624077"
       height="1.1362936">
      <feGaussianBlur
         inkscape:collect="always"
         stdDeviation="2.8284067"
         id="feGaussianBlur8177" />
    </filter>
  </defs>
  <g
     inkscape:label="Layer 1"
     inkscape:groupmode="layer"
     id="layer1">
    <rect
       style="fill:url(#linearGradient830);fill-opacity:1;stroke-width:0.264583"
       id="rect61"
       width="135.46666"
       height="135.46666"
       x="0"
       y="-135.46666"
       transform="rotate(90)" />
    <path
       class="template-0 SFSymbolsPreview000000"
       d="m 68.728895,19.525583 q -5.40849,0 -10.102649,1.989889 -4.694159,1.989929 -8.240224,5.535979 -3.546169,3.546169 -5.536082,8.214731 -1.989893,4.66868 -1.989893,10.026143 0,8.112638 4.464561,14.694746 4.464479,6.58199 12.01597,9.490283 v 39.594106 q 0,0.81639 0.280688,1.42867 0.280568,0.61229 0.841817,1.22457 l 6.735065,6.83716 q 0.510253,0.45913 1.454163,0.56121 0.944016,0.10188 1.607252,-0.56121 L 83.06646,105.75495 q 0.663338,-0.71433 0.663338,-1.58171 0,-0.86741 -0.663338,-1.53072 L 75.259893,94.937975 85.974786,84.223088 q 0.663341,-0.612244 0.637736,-1.479661 -0.02567,-0.867418 -0.73983,-1.581756 L 75.361884,70.497891 q 9.235232,-3.724762 14.235562,-10.332266 5.000225,-6.607543 5.000225,-14.8733 0,-5.357463 -2.015406,-10.026143 -2.015411,-4.668562 -5.561477,-8.214731 -3.546169,-3.54605 -8.240326,-5.535979 -4.694159,-1.989889 -10.051555,-1.989889 z m 0,24.593165 q -2.959321,0 -5.07682,-2.091904 -2.117504,-2.091982 -2.117504,-5.102329 0,-3.010387 2.092006,-5.102409 2.091899,-2.091904 5.102318,-2.091904 2.95932,0 5.076824,2.117496 2.117396,2.117418 2.117396,5.076817 0,3.010347 -2.117396,5.102329 -2.117504,2.091904 -5.076824,2.091904 z"
       id="path5995"
       style="fill:#000000;fill-opacity:0.497872;stroke:none;stroke-width:1.04484;stroke-dasharray:none;stroke-opacity:1;filter:url(#filter8175)" />
    <path
       class="template-0 SFSymbolsPreview000000"
       d="m 69.003395,17.035249 q -5.40849,0 -10.102649,1.989889 -4.694159,1.989929 -8.240224,5.535979 -3.546169,3.546169 -5.536082,8.214731 -1.989893,4.66868 -1.989893,10.026143 0,8.112638 4.464561,14.694746 4.464479,6.58199 12.01597,9.490283 v 39.59411 q 0,0.81639 0.280688,1.42867 0.280568,0.61229 0.841817,1.22457 l 6.735065,6.83716 q 0.510253,0.45913 1.454163,0.56121 0.944016,0.10188 1.607252,-0.56121 L 83.34096,103.26462 q 0.663338,-0.71433 0.663338,-1.58171 0,-0.86741 -0.663338,-1.53072 L 75.534393,92.447641 86.249286,81.732754 q 0.663341,-0.612244 0.637736,-1.479661 -0.02567,-0.867418 -0.73983,-1.581756 L 75.636384,68.007557 q 9.235232,-3.724762 14.235562,-10.332266 5.000225,-6.607543 5.000225,-14.8733 0,-5.357463 -2.015406,-10.026143 -2.015411,-4.668562 -5.561477,-8.214731 -3.546169,-3.54605 -8.240326,-5.535979 -4.694159,-1.989889 -10.051555,-1.989889 z m 0,24.593165 q -2.959321,0 -5.07682,-2.091904 -2.117504,-2.091982 -2.117504,-5.102329 0,-3.010387 2.092006,-5.102409 2.091899,-2.091904 5.102318,-2.091904 2.95932,0 5.076824,2.117496 2.117396,2.117418 2.117396,5.076817 0,3.010347 -2.117396,5.102329 -2.117504,2.091904 -5.076824,2.091904 z"
       id="path2514"
       style="fill:#ffffff;stroke-width:1.04496;fill-opacity:1" />
  </g>
</svg>
